/*
 * Maximize icon (toggled, pressed)
 */
#define max_toggled_pressed_width   10
#define max_toggled_pressed_height  10

static unsigned char max_toggled_pressed_bits[] = {
    0x00, 0xFC,
    0x00, 0xFC,
    0x00, 0xFC,
    0x00, 0xFC,
    0x00, 0xFC,
    0x7C, 0xFC,
    0x7C, 0xFC,
    0x44, 0xFC,
    0x44, 0xFC,
    0x7C, 0xFC,
};

